<?xml version="1.0" encoding="utf-8"?>
<!-- Generator: Adobe Illustrator 16.0.0, SVG Export Plug-In . SVG Version: 6.00 Build 0)  -->
<!DOCTYPE svg PUBLIC "-//W3C//DTD SVG 1.1//EN" "http://www.w3.org/Graphics/SVG/1.1/DTD/svg11.dtd">
<svg version="1.1" id="Isolation_Mode" xmlns="http://www.w3.org/2000/svg" xmlns:xlink="http://www.w3.org/1999/xlink" x="0px"
	 y="0px" width="132.486px" height="15.084px" viewBox="0 0 132.486 15.084" enable-background="new 0 0 132.486 15.084"
	 xml:space="preserve">
<g>
	<path fill="#FECA00" d="M13.845,15.084H3.088C1.383,15.084,0,13.702,0,11.996V3.088C0,1.383,1.383,0,3.088,0h10.757
		c1.706,0,3.088,1.383,3.088,3.088v8.908C16.933,13.702,15.551,15.084,13.845,15.084z"/>
	<g>
		<path fill="#1D253E" d="M10.161,9.908c0,0.334-0.272,0.606-0.606,0.606H7.467c-0.334,0-0.606-0.271-0.606-0.606V9.386H5.994v0.521
			c0,0.812,0.66,1.473,1.473,1.473h2.088c0.812,0,1.474-0.661,1.474-1.473V9.386h-0.867V9.908z"/>
	</g>
	<g>
		<g>
			<circle fill="#1D253E" cx="4.286" cy="6.46" r="1.296"/>
		</g>
	</g>
	<g>
		<g>
			<circle fill="#1D253E" cx="12.708" cy="6.46" r="1.296"/>
		</g>
	</g>
</g>
<g>
	<path fill="#1D253E" d="M23.486,10.721c0.183,0.065,0.403,0.104,0.663,0.104c0.494,0,0.819-0.338,0.988-1
		c0.168-0.663,0.271-1.924,0.299-3.77l0.039-2.665h6.421v9.098h-1.859V5.068h-2.755l-0.053,1.845
		c-0.064,2.118-0.299,3.587-0.728,4.406c-0.429,0.806-1.169,1.208-2.249,1.208c-0.324,0-0.584-0.039-0.767-0.117V10.721z"/>
	<path fill="#1D253E" d="M35.458,4.586c0.896-0.923,2.027-1.377,3.38-1.377c1.352,0,2.469,0.455,3.366,1.377
		c0.896,0.91,1.352,2.028,1.352,3.354c0,1.312-0.455,2.43-1.352,3.354c-0.897,0.922-2.015,1.377-3.366,1.377
		c-1.353,0-2.483-0.455-3.38-1.377c-0.896-0.923-1.339-2.041-1.339-3.354C34.119,6.614,34.562,5.496,35.458,4.586 M38.838,10.917
		c0.806,0,1.468-0.286,2.001-0.845s0.807-1.273,0.807-2.131s-0.273-1.573-0.807-2.132c-0.533-0.559-1.195-0.845-2.001-0.845
		s-1.481,0.287-2.016,0.845C36.29,6.367,36.03,7.082,36.03,7.94s0.26,1.572,0.792,2.131C37.356,10.63,38.032,10.917,38.838,10.917"
		/>
	<polygon fill="#1D253E" points="45.507,12.489 45.507,3.391 52.069,3.391 52.069,5.068 47.378,5.068 47.378,12.489 	"/>
	<path fill="#1D253E" d="M54.202,4.586c0.897-0.923,2.027-1.377,3.379-1.377c1.353,0,2.47,0.455,3.367,1.377
		C61.844,5.496,62.3,6.614,62.3,7.94c0,1.312-0.456,2.43-1.352,3.354c-0.897,0.922-2.015,1.377-3.367,1.377
		c-1.352,0-2.481-0.455-3.379-1.377c-0.896-0.923-1.34-2.041-1.34-3.354C52.862,6.614,53.306,5.496,54.202,4.586 M57.581,10.917
		c0.806,0,1.469-0.286,2.002-0.845s0.806-1.273,0.806-2.131s-0.272-1.573-0.806-2.132c-0.533-0.559-1.196-0.845-2.002-0.845
		S56.1,5.25,55.567,5.808c-0.534,0.559-0.794,1.274-0.794,2.132s0.26,1.572,0.794,2.131C56.1,10.63,56.775,10.917,57.581,10.917"/>
	<polygon fill="#1D253E" points="64.72,12.489 64.72,3.391 66.577,3.391 69.216,7.16 71.854,3.391 73.7,3.391 73.7,12.489 
		71.854,12.489 71.854,6.263 69.762,9.188 68.723,9.188 66.591,6.263 66.591,12.489 	"/>
	<path fill="#1D253E" d="M75.934,12.489l3.899-9.15h1.793l3.899,9.15h-1.988l-0.897-2.105h-3.847l-0.896,2.105H75.934z
		 M79.379,8.836h2.663l-1.325-3.158L79.379,8.836z"/>
	<polygon fill="#1D253E" points="87.64,12.489 87.64,3.391 89.511,3.391 89.511,10.812 92.409,10.812 92.409,3.391 94.268,3.391 
		94.268,10.812 97.18,10.812 97.18,3.391 99.051,3.391 99.051,12.489 	"/>
	<polygon fill="#1D253E" points="102.187,12.489 102.187,3.391 104.058,3.391 104.058,9.318 108.464,3.391 110.075,3.391 
		110.075,12.489 108.218,12.489 108.218,6.523 103.759,12.489 	"/>
	<polygon fill="#1D253E" points="113.126,12.489 113.126,3.391 114.997,3.391 114.997,6.796 119.105,6.796 119.105,3.391 
		120.963,3.391 120.963,12.489 119.105,12.489 119.105,8.499 114.997,8.499 114.997,12.489 	"/>
	<path fill="#1D253E" d="M122.895,12.489l3.898-9.15h1.794l3.899,9.15h-1.988l-0.897-2.105h-3.847l-0.897,2.105H122.895z
		 M126.339,8.836h2.664l-1.326-3.158L126.339,8.836z"/>
</g>
</svg>
