<svg xmlns="http://www.w3.org/2000/svg" viewBox="0 0 190.48 46.44"><defs><style>.cls-1{fill:#1a1a1a;}</style></defs><title>logo</title><g id="Layer_2" data-name="Layer 2"><g id="Layer_1-2" data-name="Layer 1"><path class="cls-1" d="M180.56,0a9.92,9.92,0,1,0,9.92,9.92A9.92,9.92,0,0,0,180.56,0Zm3.26,7.57-.56.95a.82.82,0,0,1-.5.38.88.88,0,0,1-.61-.08l-.08-.05a1.61,1.61,0,0,0-.45-.33,1.23,1.23,0,0,0-.8,0,1,1,0,0,0-.24.14,1.75,1.75,0,0,0-.23.24l-.19.28v4.37a.83.83,0,0,1-.2.58.81.81,0,0,1-.62.22H178a.75.75,0,0,1-.81-.8V6.52a.84.84,0,0,1,.08-.34.86.86,0,0,1,.2-.26,1,1,0,0,1,.54-.17h.93a.69.69,0,0,1,.36.09.8.8,0,0,1,.21.2,1.51,1.51,0,0,1,.11.22l.06.13a1.44,1.44,0,0,1,.07.16l0,0a5.63,5.63,0,0,1,.38-.45,2.08,2.08,0,0,1,.51-.37,2.26,2.26,0,0,1,1.36-.1,2.75,2.75,0,0,1,.56.16,3.14,3.14,0,0,1,.51.27,6.19,6.19,0,0,1,.52.36.7.7,0,0,1,.37.44A.82.82,0,0,1,183.82,7.57Z"/><path class="cls-1" d="M17.54,27.82l1.85-3.15a1.4,1.4,0,0,0,.25-1.06,1.17,1.17,0,0,0-.64-.67c-.65-.47-1.19-.84-1.69-1.16A9.09,9.09,0,0,0,15.83,21a7.93,7.93,0,0,0-1.57-.46,10.7,10.7,0,0,0-1.9-.16,3.64,3.64,0,0,0-1.67.37,5.36,5.36,0,0,0-1.31,1,14.86,14.86,0,0,0-1.16,1.34c-.37.49-.77,1-1.2,1.45L6.63,25l-.39-1c-.09-.23-.19-.47-.28-.72l-.27-.7a2.77,2.77,0,0,0-.15-.36,4.75,4.75,0,0,1-.28-.6A2.6,2.6,0,0,0,5,21.15a.84.84,0,0,0-.27-.26.75.75,0,0,0-.42-.09H1.26a1.68,1.68,0,0,0-.9.29,1.05,1.05,0,0,0-.24.35,1.11,1.11,0,0,0-.12.5V44.77C0,45.61.37,46,1.22,46H5.81a1.39,1.39,0,0,0,1-.28,1.35,1.35,0,0,0,.28-.92V29.9l0-.09c.3-.48.59-.91.88-1.29a6.48,6.48,0,0,1,1-1,4.24,4.24,0,0,1,1.2-.7,4.5,4.5,0,0,1,1.53-.25,5.27,5.27,0,0,1,2.22.45,6.74,6.74,0,0,1,1.84,1.31,1.56,1.56,0,0,0,1,.13A1.31,1.31,0,0,0,17.54,27.82Z"/><path class="cls-1" d="M46.34,21a.72.72,0,0,0-.38-.22,2.91,2.91,0,0,0-.46-.05h-3a2.67,2.67,0,0,0-.56,0,.4.4,0,0,0-.2.11,1.07,1.07,0,0,0-.2.35l-.34.82-1,3.15-.42-.61A15.55,15.55,0,0,0,38.51,23,9.17,9.17,0,0,0,37,21.69a8,8,0,0,0-1.84-.94,6.43,6.43,0,0,0-2.2-.36,12.81,12.81,0,0,0-5.06,1,12.63,12.63,0,0,0-4.1,2.75,13.33,13.33,0,0,0-3.31,12.76,12.71,12.71,0,0,0,9,9.07,12.68,12.68,0,0,0,3.46.46,5,5,0,0,0,1.82-.33,8.48,8.48,0,0,0,1.64-.85,11.87,11.87,0,0,0,1.39-1.11L39,43l.4-.4.8,2.06.23.64a1.5,1.5,0,0,0,.22.4.64.64,0,0,0,.29.21,1.52,1.52,0,0,0,.55.08h4a2.91,2.91,0,0,0,.46,0,.64.64,0,0,0,.34-.19.76.76,0,0,0,.33-.37,1.61,1.61,0,0,0,.1-.53v-23a1.36,1.36,0,0,0-.09-.51A1,1,0,0,0,46.34,21Zm-7.17,15.1a6.58,6.58,0,0,1-1.43,2.15,7,7,0,0,1-2.16,1.43,6.82,6.82,0,0,1-2.68.53,6,6,0,0,1-4.56-2,6.49,6.49,0,0,1-1.26-2.15,7.91,7.91,0,0,1-.44-2.64,7.82,7.82,0,0,1,.44-2.61,6.65,6.65,0,0,1,1.26-2.2,6.14,6.14,0,0,1,2-1.51,6,6,0,0,1,2.58-.56,6.55,6.55,0,0,1,2.69.56,6.74,6.74,0,0,1,2.15,1.49,6.91,6.91,0,0,1,1.43,2.2,6.71,6.71,0,0,1,.52,2.63A6.78,6.78,0,0,1,39.17,36.07Z"/><path class="cls-1" d="M75.51,13.18a1.28,1.28,0,0,0-.44-.09H70.48a1.14,1.14,0,0,0-.91.33,1.2,1.2,0,0,0-.31.85V24.53l-.63-.68c-.38-.41-.78-.82-1.21-1.25a9.6,9.6,0,0,0-1.35-1.11,7.09,7.09,0,0,0-1.61-.79,5.92,5.92,0,0,0-1.93-.31,12.24,12.24,0,0,0-5,1,11.93,11.93,0,0,0-3.9,2.75,12.83,12.83,0,0,0-2.56,4.13,14.79,14.79,0,0,0,0,10.27,13,13,0,0,0,2.56,4.13,12,12,0,0,0,3.9,2.76,12.08,12.08,0,0,0,5,1,5.11,5.11,0,0,0,1.85-.33A8,8,0,0,0,66,45.24a11.67,11.67,0,0,0,1.42-1.15c.44-.41.84-.81,1.2-1.17l.41-.41.79,2.13c.11.23.22.47.3.67a1.84,1.84,0,0,0,.22.4.58.58,0,0,0,.25.19,1.15,1.15,0,0,0,.48.07h4c.9,0,1.29-.36,1.29-1.2V14.27a1,1,0,0,0-.11-.45,1.15,1.15,0,0,0-.31-.38A1.38,1.38,0,0,0,75.51,13.18ZM69.85,33.69a6.82,6.82,0,0,1-.61,2.56,6.93,6.93,0,0,1-1.46,2.06,6.73,6.73,0,0,1-2.12,1.37,6.84,6.84,0,0,1-2.6.5,6,6,0,0,1-4.56-2,6.39,6.39,0,0,1-1.26-2.15,7.91,7.91,0,0,1-.44-2.64,7.82,7.82,0,0,1,.44-2.61,6.83,6.83,0,0,1,1.26-2.2,6.07,6.07,0,0,1,2-1.51,5.9,5.9,0,0,1,2.57-.56,6.55,6.55,0,0,1,2.69.56,6.74,6.74,0,0,1,2.15,1.49,6.91,6.91,0,0,1,1.43,2.2,6.71,6.71,0,0,1,.52,2.63Z"/><path class="cls-1" d="M106.33,21l0,0a.68.68,0,0,0-.36-.2,2.91,2.91,0,0,0-.46-.05h-3a2.62,2.62,0,0,0-.55,0,.33.33,0,0,0-.19.11.83.83,0,0,0-.21.35l-.34.82-1,3.15-.42-.61A15.55,15.55,0,0,0,98.5,23,9.17,9.17,0,0,0,97,21.69a7.59,7.59,0,0,0-1.84-.94,6.43,6.43,0,0,0-2.2-.36,12.81,12.81,0,0,0-5.06,1,12.63,12.63,0,0,0-4.1,2.75A13,13,0,0,0,80,33.41,13,13,0,0,0,81.77,40a12.77,12.77,0,0,0,2,2.63,12.47,12.47,0,0,0,2.6,2A13.26,13.26,0,0,0,89.49,46a12.68,12.68,0,0,0,3.46.46,5,5,0,0,0,1.82-.33,8.48,8.48,0,0,0,1.64-.85,11.87,11.87,0,0,0,1.39-1.11L99,43l.4-.4.8,2.06.23.64a1.67,1.67,0,0,0,.22.4.64.64,0,0,0,.29.21,1.52,1.52,0,0,0,.55.08h4a2.91,2.91,0,0,0,.46,0,.71.71,0,0,0,.35-.19.78.78,0,0,0,.32-.37,1.61,1.61,0,0,0,.1-.53v-23a1.36,1.36,0,0,0-.09-.51A1,1,0,0,0,106.33,21Zm-7.17,15.1a6.58,6.58,0,0,1-1.43,2.15,7,7,0,0,1-2.16,1.43,6.78,6.78,0,0,1-2.68.53,6,6,0,0,1-4.56-2,6.39,6.39,0,0,1-1.26-2.15,7.91,7.91,0,0,1-.44-2.64,7.82,7.82,0,0,1,.44-2.61,6.65,6.65,0,0,1,1.26-2.2,5.91,5.91,0,0,1,4.56-2.07,6.55,6.55,0,0,1,2.69.56,6.74,6.74,0,0,1,2.15,1.49,6.91,6.91,0,0,1,1.43,2.2,7,7,0,0,1,0,5.29Z"/><path class="cls-1" d="M128.87,27.82l1.85-3.15a1.45,1.45,0,0,0,.26-1.06,1.23,1.23,0,0,0-.65-.67c-.64-.46-1.19-.84-1.69-1.16a9.09,9.09,0,0,0-1.48-.77,7.93,7.93,0,0,0-1.57-.46,10.7,10.7,0,0,0-1.9-.16,3.57,3.57,0,0,0-1.66.37,5.23,5.23,0,0,0-1.32,1,12.54,12.54,0,0,0-1.16,1.34c-.38.5-.78,1-1.2,1.45L118,25l-.39-1-.28-.72-.26-.7-.15-.36a3.7,3.7,0,0,1-.29-.6,2,2,0,0,0-.23-.44.75.75,0,0,0-.27-.26.73.73,0,0,0-.41-.09H112.6a1.63,1.63,0,0,0-.9.29.93.93,0,0,0-.25.35,1.11,1.11,0,0,0-.12.5V44.77c0,.84.37,1.2,1.22,1.2h4.59a1.39,1.39,0,0,0,1-.28,1.3,1.3,0,0,0,.28-.92V29.9l0-.09c.3-.48.59-.91.88-1.29a5.82,5.82,0,0,1,1-1.05,4.16,4.16,0,0,1,1.19-.69,4.54,4.54,0,0,1,1.53-.25,5.27,5.27,0,0,1,2.22.45,6.59,6.59,0,0,1,1.84,1.31,1.61,1.61,0,0,0,1,.13A1.31,1.31,0,0,0,128.87,27.82Z"/><path class="cls-1" d="M140.9,16.08a1.08,1.08,0,0,0,.09-.4v-4a1.14,1.14,0,0,0-.31-.92,1.37,1.37,0,0,0-.92-.28H135a1.33,1.33,0,0,0-.89.25,1.42,1.42,0,0,0-.25.95v4c0,.93.34,1.33,1.14,1.33h4.73a.92.92,0,0,0,.48-.12,1.68,1.68,0,0,0,.4-.35A2.14,2.14,0,0,0,140.9,16.08Z"/><path class="cls-1" d="M140.1,20.89a1.08,1.08,0,0,0-.4-.09H135a1,1,0,0,0-.85.33,1.37,1.37,0,0,0-.29.9V44.77c0,.84.34,1.2,1.14,1.2h4.67a1.42,1.42,0,0,0,1-.3,1.16,1.16,0,0,0,.31-.9V22a.89.89,0,0,0-.12-.47,1.76,1.76,0,0,0-.35-.41A1.54,1.54,0,0,0,140.1,20.89Z"/><path class="cls-1" d="M166.64,24.15a13,13,0,0,0-4.13-2.75,12.85,12.85,0,0,0-5.07-1,13.44,13.44,0,0,0-3.5.46,13.13,13.13,0,0,0-3.13,1.29,12.5,12.5,0,0,0-2.62,2,13.14,13.14,0,0,0-2,2.62,12.93,12.93,0,0,0-1.31,3.12,13.59,13.59,0,0,0-.46,3.52,13.44,13.44,0,0,0,.46,3.5A13.28,13.28,0,0,0,146.16,40a12.4,12.4,0,0,0,2,2.63,12.94,12.94,0,0,0,2.62,2A13.13,13.13,0,0,0,153.94,46a13,13,0,0,0,12.7-3.32,12.69,12.69,0,0,0,2-2.63A13.28,13.28,0,0,0,170,36.91a13,13,0,0,0,.46-3.5,12.8,12.8,0,0,0-1-5.13A13.15,13.15,0,0,0,166.64,24.15ZM163.08,36a6.33,6.33,0,0,1-1.21,2.16,5.82,5.82,0,0,1-1.94,1.44,5.91,5.91,0,0,1-2.55.54,6.27,6.27,0,0,1-2.61-.53,6.15,6.15,0,0,1-2-1.45,6.54,6.54,0,0,1-1.25-2.15,7.91,7.91,0,0,1-.44-2.64,7.82,7.82,0,0,1,.44-2.61,6.81,6.81,0,0,1,1.25-2.2,5.91,5.91,0,0,1,4.59-2.07,5.74,5.74,0,0,1,4.5,2.07,6.89,6.89,0,0,1,1.2,2.2,8.38,8.38,0,0,1,0,5.24Z"/></g></g></svg>