<svg width="124" height="40" viewBox="0 0 124 40" xmlns="http://www.w3.org/2000/svg"><title>Group 6</title><g fill-rule="nonzero" fill="none"><path d="M19.816.008C8.872.008 0 8.961 0 20.004 0 31.048 8.872 40 19.816 40h83.902c7.082 0 13.625-3.812 17.165-10a20.157 20.157 0 0 0 0-20c-3.54-6.188-10.083-10-17.165-10L19.816.008z" fill="#F4364C"/><g fill="#FFF"><path d="M81.18 13.065H75.99a.163.163 0 0 0-.163.164l.18 1.469c.048.351.375.53.775.53h.416v8.858h-.416a.686.686 0 0 0-.751.53l-.18 1.478a.155.155 0 0 0 .163.155h5.192a6.596 6.596 0 1 0 0-13.184h-.024zm0 11.029h-1.632V15.22h1.633a4.44 4.44 0 0 1 0 8.874zM104.25 13.224a.163.163 0 0 0-.163-.163h-2.392a1.167 1.167 0 0 0-1.167 1.168v6.22a3.633 3.633 0 0 1-3.486 3.804 3.747 3.747 0 0 1-3.657-3.486v-6.53a1.151 1.151 0 0 0-1.151-1.168h-2.368a.163.163 0 0 0-.163.164l.163 1.632a.76.76 0 0 0 .817.564h.392v5.29a5.902 5.902 0 0 0 11.804.138V15.43h.367a.816.816 0 0 0 .816-.564l.188-1.64zM26.242 26.278a4.082 4.082 0 0 0 4.082-4.082 3.804 3.804 0 0 0-2.025-3.388 3.355 3.355 0 0 0 .727-2.106 3.69 3.69 0 0 0-3.65-3.64h-6.53a.163.163 0 0 0-.163.162l.18 1.42a.727.727 0 0 0 .767.597h.392v8.865h-.303a.767.767 0 0 0-.816.62l-.18 1.396c0 .09.074.164.164.164l7.355-.008zM25.09 15.273c.85.06 1.524.741 1.575 1.592a1.437 1.437 0 0 1-1.575 1.51h-2.816v-3.093l2.816-.009zm.816 8.833h-3.632v-3.943h3.632a1.971 1.971 0 1 1 0 3.943zM45.113 24.776l-4.669-10.809c-.278-.694-.547-.906-1.07-.906H36.82a.163.163 0 0 0-.163.163l.18 1.437a.71.71 0 0 0 .718.588l-4.081 9.527a1.176 1.176 0 0 0 .612 1.542h1.077c.27-.114.31-.326.433-.612l.743-1.788h5.87l.742 1.788c.123.286.172.498.433.612h1.11a1.176 1.176 0 0 0 .62-1.542zM37.04 22.13l2.155-5.2 2.163 5.208-4.318-.008zM73.685 24.776l-4.661-10.809c-.278-.694-.547-.906-1.07-.906h-2.563a.163.163 0 0 0-.163.163l.18 1.437a.71.71 0 0 0 .718.588l-4.082 9.527a1.176 1.176 0 0 0 .612 1.542h1.086c.27-.114.31-.326.433-.612l.742-1.788h5.87l.743 1.788c.122.286.171.498.432.612h1.11c.595-.257.869-.947.613-1.542zm-8.033-2.637l2.155-5.2 2.163 5.208-4.318-.008zM54.854 26.245a4.082 4.082 0 0 0 4.082-4.082 3.804 3.804 0 0 0-2.025-3.387 3.355 3.355 0 0 0 .686-2.074 3.69 3.69 0 0 0-3.649-3.64h-6.53a.163.163 0 0 0-.164.162l.18 1.42a.727.727 0 0 0 .767.597h.416v8.832h-.302a.767.767 0 0 0-.816.62l-.18 1.397c0 .09.074.163.164.163l7.371-.008zm-1.077-10.996c.85.06 1.524.741 1.575 1.592a1.437 1.437 0 0 1-1.575 1.518h-2.89v-3.11h2.89zm.816 8.833h-3.706V20.13h3.657a1.971 1.971 0 1 1 0 3.942l.049.009z"/></g></g></svg>