<svg width="273" height="60" viewBox="0 0 273 60" fill="none" xmlns="http://www.w3.org/2000/svg">
<line x1="2.5" y1="2.5" x2="37.5" y2="2.5" stroke="#008073" stroke-width="5" stroke-linecap="round"/>
<line x1="2.5" y1="2.5" x2="2.5" y2="37.5" stroke="#008073" stroke-width="5" stroke-linecap="round"/>
<line x1="57.5" y1="57.5" x2="22.5" y2="57.5" stroke="#008073" stroke-width="5" stroke-linecap="round"/>
<line x1="57.5" y1="57.5" x2="57.5" y2="22.5" stroke="#008073" stroke-width="5" stroke-linecap="round" stroke-linejoin="round"/>
<path d="M32.556 46.336C29.616 46.336 26.956 45.692 24.576 44.404C22.224 43.088 20.376 41.296 19.032 39.028C17.688 36.732 17.016 34.156 17.016 31.3C17.016 28.444 17.688 25.882 19.032 23.614C20.376 21.318 22.238 19.526 24.618 18.238C26.998 16.922 29.658 16.264 32.598 16.264C34.894 16.264 36.994 16.656 38.898 17.44C40.802 18.196 42.426 19.33 43.77 20.842L41.04 23.488C38.828 21.164 36.07 20.002 32.766 20.002C30.582 20.002 28.608 20.492 26.844 21.472C25.08 22.452 23.694 23.81 22.686 25.546C21.706 27.254 21.216 29.172 21.216 31.3C21.216 33.428 21.706 35.36 22.686 37.096C23.694 38.804 25.08 40.148 26.844 41.128C28.608 42.108 30.582 42.598 32.766 42.598C36.042 42.598 38.8 41.422 41.04 39.07L43.77 41.716C42.426 43.228 40.788 44.376 38.856 45.16C36.952 45.944 34.852 46.336 32.556 46.336Z" fill="#795548"/>
<path d="M84.54 44.3C87.99 44.3 90.93 43.07 92.88 40.79L90.36 38.39C88.83 40.07 86.94 40.88 84.75 40.88C80.4 40.88 77.25 37.82 77.25 33.5C77.25 29.18 80.4 26.12 84.75 26.12C86.94 26.12 88.83 26.93 90.36 28.58L92.88 26.21C90.93 23.93 87.99 22.7 84.57 22.7C78.12 22.7 73.32 27.23 73.32 33.5C73.32 39.77 78.12 44.3 84.54 44.3ZM105.987 44.3C112.497 44.3 117.297 39.74 117.297 33.5C117.297 27.26 112.497 22.7 105.987 22.7C99.4774 22.7 94.6774 27.29 94.6774 33.5C94.6774 39.71 99.4774 44.3 105.987 44.3ZM105.987 40.88C101.757 40.88 98.6074 37.79 98.6074 33.5C98.6074 29.21 101.757 26.12 105.987 26.12C110.217 26.12 113.367 29.21 113.367 33.5C113.367 37.79 110.217 40.88 105.987 40.88ZM121.431 44H130.611C137.421 44 142.071 39.8 142.071 33.5C142.071 27.2 137.421 23 130.611 23H121.431V44ZM125.331 40.7V26.3H130.431C135.111 26.3 138.141 29.15 138.141 33.5C138.141 37.85 135.111 40.7 130.431 40.7H125.331ZM150.116 40.73V34.94H160.256V31.73H150.116V26.27H161.546V23H146.216V44H161.966V40.73H150.116ZM181.644 26.27V23H166.314V44H170.214V35.96H180.354V32.66H170.214V26.27H181.644ZM203.356 44L198.526 37.1C201.376 35.99 202.996 33.65 202.996 30.47C202.996 25.82 199.576 23 194.056 23H185.416V44H189.316V37.88H194.056C194.326 37.88 194.596 37.88 194.866 37.85L199.156 44H203.356ZM199.066 30.47C199.066 33.11 197.296 34.67 193.876 34.67H189.316V26.3H193.876C197.296 26.3 199.066 27.83 199.066 30.47ZM217.169 44.3C223.679 44.3 228.479 39.74 228.479 33.5C228.479 27.26 223.679 22.7 217.169 22.7C210.659 22.7 205.859 27.29 205.859 33.5C205.859 39.71 210.659 44.3 217.169 44.3ZM217.169 40.88C212.939 40.88 209.789 37.79 209.789 33.5C209.789 29.21 212.939 26.12 217.169 26.12C221.399 26.12 224.549 29.21 224.549 33.5C224.549 37.79 221.399 40.88 217.169 40.88ZM247.403 23V37.22L235.823 23H232.613V44H236.483V29.78L248.063 44H251.273V23H247.403ZM261.16 44H265.06V26.3H272.02V23H254.2V26.3H261.16V44Z" fill="#795548"/>
</svg>
